<?xml version="1.0" encoding="utf-8"?>
<!-- Generator: Adobe Illustrator 16.0.0, SVG Export Plug-In . SVG Version: 6.00 Build 0)  -->
<!DOCTYPE svg PUBLIC "-//W3C//DTD SVG 1.1//EN" "http://www.w3.org/Graphics/SVG/1.1/DTD/svg11.dtd">
<svg version="1.1" id="Layer_1" xmlns="http://www.w3.org/2000/svg" xmlns:xlink="http://www.w3.org/1999/xlink" x="0px" y="0px"
	 width="670.954px" height="140.428px" viewBox="0 0 670.954 140.428" enable-background="new 0 0 670.954 140.428"
	 xml:space="preserve" style="fill: #493932;">
<g>
	<g>
		<path d="M131.459,0.503h1.911c11.733,0,21.439,3.487,29.118,10.461c3.251,3.62,5.28,8.281,6.085,13.98h-0.402
			c-0.604-5.029-2.582-9.404-5.935-13.126c-1.677-1.676-3.906-3.219-6.688-4.627v0.201l-1.86-0.854h-0.201V6.79h0.402v0.2
			l-1.057,0.201c-4.996-1.943-9.605-2.916-13.83-2.916c-8.516-1.039-14.995-0.554-19.437,1.458
			c-4.443,2.012-7.871,4.091-10.284,6.236c-2.414,2.146-8.518,9.882-18.307,23.209c-9.79,13.326-18.742,27.986-26.855,43.979
			c0,0.738-2.162,4.66-6.486,11.769c-0.303,1.374-0.654,2.062-1.057,2.062l-1.057-2.062c0.906-1.644,1.945-7.662,3.119-18.055
			c2.816-13.344,7.225-28.414,13.226-45.211c-0.269,0-0.402,0.201-0.402,0.604l-0.251,0.201H71.01v-0.402
			c1.508-2.682,2.916-5.615,4.225-8.801v-0.201h-0.252c-5.164,11.634-11.299,22.245-18.406,31.834
			c-2.615,3.789-6.873,8.684-12.773,14.685C30.828,76.14,21.607,81.79,16.143,82.526v-0.402c5.867-0.938,15.221-6.872,28.063-17.803
			l6.085-6.537v-0.201c-8.315,8.416-15.306,14.35-20.972,17.803c-7.744,4.896-14.518,7.342-20.316,7.342H7.744l-2.917-0.201
			l-0.653,0.201c-0.102-0.369-0.873-0.921-2.313-1.659C0.619,79.594,0,77.783,0,75.637c0-5.431,3-10.813,9.002-16.143
			c2.346-1.14,3.889-1.71,4.626-1.71h2.062c3.353,0,5.314,2.515,5.885,7.543v0.453c0,2.28-1.961,4.576-5.885,6.89h-0.201v-0.402
			c1.441-0.402,3.051-1.877,4.828-4.426v-0.402c-2.313,2.582-4.057,3.974-5.23,4.175v-0.201l0.201-0.201v-0.201
			c-0.703,0-1.056-0.134-1.056-0.402v-0.252c3.923-2.012,5.884-4.308,5.884-6.89v-0.654c-0.938-1.239-2.129-1.86-3.57-1.86h-1.258
			c-5.063,0-9.538,4.677-13.427,14.031l-0.402,3.369c0.636,2.079,2.731,3.118,6.286,3.118c10.662,0,23.787-7.677,39.377-23.033
			c3.956-4.325,7.175-8.23,9.656-11.718c0.771,0,1.475-0.704,2.112-2.112C68.545,30.124,75.033,17.77,78.352,7.544L80.264,0h0.201
			c1.105,1.441,1.658,3.118,1.658,5.029v1.659c0,6.136-3.285,18.356-9.856,36.662l-8.349,26l-0.452,3.521
			c4.157-7.61,8.918-15.641,14.282-24.089c7.611-10.763,15.49-21.466,23.637-32.11C109.532,6.027,119.557,0.638,131.459,0.503z
			 M6.688,82.124v0.201h3.37v-0.201H6.688z M57.18,50.895v0.201l-0.402,0.402v-0.201L57.18,50.895z M70.205,30.175v0.402
			c-2.984,6.203-6.907,12.622-11.768,19.261l-1.057,0.855v-0.201C61.705,44.189,65.98,37.416,70.205,30.175z M150.972,5.532v0.201
			l0.604,0.201h0.201V5.733l-0.604-0.201H150.972z M151.978,5.935v0.201l0.653,0.201h0.201V6.136l-0.604-0.201H151.978z
			 M168.372,25.548h0.402v0.653h-0.402V25.548z M168.573,27.006h0.402v0.654h-0.402V27.006z M168.774,29.118h0.402v0.604h-0.402
			V29.118z"/>
		<path d="M102.14,53.609c4.325,0,7.073,3.286,8.247,9.857c0,1.24,0.268,2.716,0.805,4.426c0,1.24-1.073,3.654-3.219,7.241h0.201
			c2.783-0.435,5.666-1.509,8.65-3.218l0.201,0.201v0.2c-2.012,1.074-3.018,1.879-3.018,2.414c-1.91,1.476-3.789,2.213-5.633,2.213
			v0.201h0.805l4.426-1.207v0.201c0,0.738-3.018,1.609-9.053,2.615c-3.721,4.023-9.22,6.035-16.494,6.035H86.65
			c-5.029,0-8.182-1.785-9.455-5.356c-1.273-3.57,0.939-8.49,6.639-14.76c2.111-2.112,4.928-4.593,8.449-7.443
			C93.321,55.219,96.607,54.012,102.14,53.609z M81.219,78.151v0.604c1.943,2.28,3.822,3.42,5.633,3.42
			c3.018,0,6.504-1.341,10.46-4.023c-4.694-0.871-7.04-1.743-7.04-2.615c-1.207-0.535-2.348-2.346-3.42-5.431H86.65
			c-2.482,1.24-4.023,2.783-4.627,4.626C81.486,76.174,81.219,77.313,81.219,78.151z M83.633,71.313h0.201L86.65,69.1v-0.402
			C84.738,69.938,83.732,70.81,83.633,71.313z M100.731,57.029v0.805l0.201,0.201v0.201l-0.201,0.201l-1.207-0.402
			c-3.487,0.973-5.23,1.979-5.23,3.018l-5.229,5.834v0.201c0.402,0,2.547-2.146,6.437-6.438v0.201
			c-0.671,1.375-2.749,3.722-6.235,7.041c-0.27,0.033-0.471,0.503-0.604,1.408v1.006c0,3.017,3.285,4.827,9.856,5.431h1.811
			c4.962-4.895,7.442-10.259,7.442-16.093c-0.436-2.146-2.246-3.219-5.431-3.219h-1.006L100.731,57.029z M96.507,57.834v0.201h0.201
			l3.621-0.402v-0.201c0-0.268-0.201-0.402-0.604-0.402L96.507,57.834z M100.731,55.219v0.201l0.201,0.201v0.201l0.201-0.201h2.614
			V55.42l-2.413-0.201H100.731z M107.369,77.146v0.201h0.805v-0.201H107.369z"/>
		<path d="M109.381,76.542h0.201l0.402,0.402l-0.201,0.201h-0.201l-0.201-0.201V76.542z M128.692,51.397
			c1.743,0.872,2.615,2.614,2.615,5.229v0.402h-0.402c0-0.402-0.135-0.604-0.402-0.604c0,1.274-0.402,3.018-1.207,5.23l2.414,1.811
			c1.911,0,4.728-1.609,8.449-4.828l1.207-0.604h0.201c1.206,1.476,1.81,2.951,1.81,4.426c-0.805,0.47-2.011,2.146-3.62,5.029
			c-6.706,4.896-10.059,9.388-10.059,13.478c0,1.509,1.14,2.515,3.42,3.018h0.604c2.917-0.638,6.94-2.782,12.069-6.438l5.029-3.822
			l-4.828,6.035v0.201l1.811-1.609v0.402c-3.521,5.364-8.215,8.047-14.081,8.047h-0.604c-3.89,0-6.505-1.677-7.846-5.029
			l-0.402-1.609V79.56c0-4.257,2.414-8.549,7.242-12.874c-1.777-0.503-2.984-1.441-3.621-2.816v-0.201h-0.201
			c-1.743,3.085-3.42,5.298-5.029,6.639h-0.201v-0.201c2.112-2.347,3.722-4.56,4.828-6.639v-0.604h-0.402
			c-0.503,1.71-2.381,4.124-5.632,7.242h-0.201l0.805-1.006h-0.402c0,0.269-1.543,1.677-4.627,4.224v0.201h0.201l0.402-0.402h0.201
			c-2.012,2.146-3.487,3.219-4.426,3.219c0-0.268,0.402-0.535,1.207-0.805v-0.201h-0.402c-0.168,0.37-1.576,1.04-4.225,2.012v-0.604
			c3.051-0.771,7.477-4.124,13.276-10.058c2.28-2.983,3.42-4.728,3.42-5.23c-0.402-0.972-0.604-2.313-0.604-4.023v-0.805
			C126.479,53.141,127.217,51.397,128.692,51.397z M117.428,75.134h0.201c-1.006,1.207-1.811,1.811-2.414,1.811
			C115.482,76.509,116.221,75.906,117.428,75.134z M128.29,58.639c0.536,0,0.938-1.341,1.207-4.023h-0.201
			C128.793,54.615,128.458,55.957,128.29,58.639z M128.692,60.852v0.201h0.402c0.671-1.811,1.006-3.084,1.006-3.822
			C129.832,57.23,129.363,58.438,128.692,60.852z"/>
		<path d="M164.55,54.213h0.805c1.038,0,2.111,1.09,3.218,3.27l0.604,2.665c-0.905,3.319-5.767,8.063-14.584,14.232
			c-2.012,0.771-3.286,1.408-3.822,1.911v0.15c0.168,2.716,1.509,4.074,4.023,4.074c1.877,0,6.102-1.542,12.673-4.627
			c2.28-0.737,4.057-1.509,5.331-2.313v0.201l-0.553,0.754l0.201,0.201v0.201l-1.911,2.112h0.15l1.157-0.402v0.201
			c-1.442,2.448-4.124,4.175-8.047,5.18c-2.783,0.771-5.28,1.157-7.493,1.157c-4.962,0-8.097-1.86-9.404-5.582l-0.553-3.219
			c0-7.107,4.794-13.511,14.383-19.211C162.471,54.532,163.745,54.213,164.55,54.213z M151.172,71.916h0.201
			c1.944-0.771,6.604-4.778,13.981-12.02l0.854-1.006l0.051-0.402c-6.773,2.582-11.802,6.99-15.088,13.227V71.916z"/>
		<path d="M215.646,32.187h1.006c0.469,0,1.006,1.206,1.609,3.62v0.805c-1.509,4.393-6.673,10.293-15.49,17.702
			c-7.442,5.834-11.601,9.389-12.472,10.662l-5.432,10.46h0.201c3.487-0.535,6.84-0.805,10.059-0.805
			c3.754,0,5.632,1.408,5.632,4.225h-0.201c0-0.569-1.476-1.039-4.425-1.408c-9.388,0.638-14.082,1.442-14.082,2.414
			c-0.637,2.447-4.576,8.852-11.817,19.211c-7.242,10.36-16.126,17.719-26.654,22.077c-3.285,1.341-6.84,2.012-10.662,2.012
			c-10.426,0-17.467-4.224-21.122-12.673c-1.877-3.755-2.816-7.242-2.816-10.46c0-4.963,2.348-8.852,7.041-11.668
			c1.845-0.805,3.588-1.207,5.23-1.207h1.408c6.27,0,11.365,3.219,15.288,9.656v0.201h-0.201c-3.587-4.292-6.001-6.438-7.241-6.438
			h-0.201v0.201c1.14,0.335,2.481,1.273,4.022,2.816h-0.201c-3.821-2.549-7.576-3.822-11.265-3.822
			c-5.364,0-8.918,3.084-10.662,9.254v2.815c0,5.331,3.018,10.628,9.053,15.893c3.353,1.742,6.169,2.615,8.449,2.615
			c9.723,0,19.681-5.173,29.872-15.515c10.192-10.344,16.277-19.002,18.256-25.976l0.201-0.201l-0.201-0.201h-1.408v-0.402h0.805
			V77.85h-1.408l0.201,0.201v0.402h-0.201c-0.805-0.536-1.207-1.072-1.207-1.609l0.201-0.201l1.006,0.402
			c3.084,0,4.627-0.737,4.627-2.213c1.541-2.078,2.815-4.224,3.821-6.437h-0.201c-9.589,5.632-14.685,8.448-15.288,8.448h-0.201
			l13.88-8.046c2.28-1.542,3.42-2.548,3.42-3.018h-0.201l-1.207,0.805h-0.402c2.18-1.609,4.526-4.761,7.041-9.455
			C201.53,41.977,209.711,33.662,215.646,32.187z M119.037,89.165v0.201h0.604l2.816-0.402l4.828,0.604h0.201v-0.201
			c-1.844-0.402-3.521-0.604-5.029-0.604L119.037,89.165z M135.935,92.183c2.414,2.581,3.621,5.331,3.621,8.248
			c-0.134,2.279-0.469,3.419-1.006,3.419v-0.402c0.402-0.771,0.604-1.576,0.604-2.413v-0.604h-0.201
			c0,2.748-2.078,5.363-6.236,7.845c-2.078,1.072-3.688,1.609-4.827,1.609c-3.286,0-5.432-2.347-6.438-7.041v-0.201l2.414,4.225
			c1.14,1.073,2.213,1.609,3.219,1.609h0.604c3.89,0,7.31-2.347,10.259-7.04l0.604-2.414c0-1.342-0.871-3.42-2.615-6.236V92.183z
			 M193.92,59.142h0.201l2.816-2.012h0.201c-2.951,2.381-4.426,3.722-4.426,4.023v0.201h0.201
			c12.706-9.32,20.686-17.165,23.938-23.536v-0.201h-0.201c-1.308,3.052-5.868,8.014-13.68,14.887l-1.006,0.804h-0.201l6.035-5.833
			v-0.201l-4.627,4.023h-0.201c9.119-8.852,13.68-14.148,13.68-15.893h-0.402c-3.085,0-8.985,5.566-17.702,16.697
			C196.602,54.684,195.06,57.029,193.92,59.142z M193.115,76.844h0.201l1.408-0.201l3.42,0.402h0.201v-0.201l-2.816-0.402h-2.012
			L193.115,76.844z M197.943,56.325h0.201l-0.402,0.402h-0.201L197.943,56.325z M199.15,55.319h0.201l-0.805,0.805h-0.201
			L199.15,55.319z M199.352,77.246l0.402,0.402h0.201l-0.402-0.402H199.352z M200.156,53.509h0.201l-0.402,0.402h-0.201
			L200.156,53.509z M201.362,53.509h0.201l-1.006,1.006h-0.2v-0.201L201.362,53.509z M202.569,51.498h0.201
			c-0.671,0.938-1.274,1.407-1.811,1.407L202.569,51.498z"/>
		<path d="M219.92,53.761c0.302,0,0.569,0.671,0.805,2.012c0,1.174-0.939,3.453-2.816,6.839c-0.805,2.649-2.884,8.215-6.236,16.697
			h0.201c1.207-1.341,4.057-2.716,8.55-4.124l0.201,0.201v0.201l-0.402,0.402l1.006-0.201h0.201v0.402
			c-1.342,0.57-2.012,0.973-2.012,1.207h0.402c1.207-0.536,2.146-0.805,2.816-0.805l0.201,0.201v0.402
			c-9.724,5.129-14.584,8.18-14.584,9.152c-3.487,7.711-11.668,19.915-24.542,36.611c-6.672,9.119-13.646,14.668-20.921,16.646
			h-0.402c-1.441,0-2.515-0.805-3.219-2.414l-1.207-5.029v-2.413c0-7.008,4.358-14.618,13.075-22.832
			c8.718-8.215,19.581-16.01,32.589-23.386c2.816-1.073,4.225-2.212,4.225-3.419c2.949-5.7,5.028-10.394,6.235-14.082
			c-6.103,5.868-9.706,9.062-10.813,9.581s-2.599,1.014-4.476,1.483l4.828-3.822l-6.035,3.018V76.09h-0.201
			c0.671,0,4.225-2.749,10.662-8.248c6.437-5.531,9.655-9.22,9.655-11.063l0.402-2.213h0.402c0,0.402,0.268,0.737,0.805,1.006h0.201
			l0.201-0.805l-0.201-0.805l0.201-0.201H219.92z M160.376,125.324h-0.402c1.207-3.588,2.414-6.337,3.621-8.248v-0.201h-0.201
			c-2.548,4.794-3.822,7.812-3.822,9.053v0.201h0.201v-0.402h0.402c-0.536,3.754-0.805,6.437-0.805,8.046
			c0,2.414,0.671,3.621,2.012,3.621c8.047-1.308,15.892-8.801,23.536-22.479c9.32-12.305,15.422-21.156,18.306-26.554h-0.201
			c-11.366,5.13-21.214,11.961-29.546,20.493C165.146,117.386,160.778,122.876,160.376,125.324z M161.382,139.204h0.201
			c1.408,0,3.554-0.805,6.438-2.414v-0.201h-0.201c-3.118,1.609-5.264,2.414-6.438,2.414V139.204z M211.068,67.238h0.201l3.621-3.42
			v-0.201L211.068,67.238z M219.518,56.979l-0.201,0.604v0.201h0.201l0.201-0.604v-0.201H219.518z"/>
		<path d="M237.874,54.213h0.805c1.038,0,2.111,1.09,3.218,3.27l0.604,2.665c-0.905,3.319-5.767,8.063-14.584,14.232
			c-2.012,0.771-3.286,1.408-3.822,1.911v0.15c0.168,2.716,1.509,4.074,4.023,4.074c1.877,0,6.102-1.542,12.673-4.627
			c2.28-0.737,4.057-1.509,5.331-2.313v0.201l-0.553,0.754l0.201,0.201v0.201l-1.911,2.112h0.15l1.157-0.402v0.201
			c-1.442,2.448-4.124,4.175-8.047,5.18c-2.783,0.771-5.28,1.157-7.493,1.157c-4.962,0-8.097-1.86-9.404-5.582l-0.553-3.219
			c0-7.107,4.794-13.511,14.383-19.211C235.795,54.532,237.069,54.213,237.874,54.213z M224.496,71.916h0.201
			c1.944-0.771,6.604-4.778,13.981-12.02l0.854-1.006l0.051-0.402c-6.773,2.582-11.802,6.99-15.088,13.227V71.916z"/>
		<path d="M298.272,9.354h0.402c1.742,0,2.615,1.006,2.615,3.018l-0.805-0.201l-0.201,0.201l-1.006-0.201h-0.604
			c-0.671,0-3.354,2.212-8.047,6.638c-8.181,7.813-13.947,14.384-17.3,19.714c-7.712,10.528-12.339,17.972-13.88,22.329
			c4.659-3.521,12.036-10.292,22.128-20.317l7.845-8.851c7.242-8.65,10.863-14.617,10.863-17.903l-0.201-1.006h0.402l0.604,2.815
			v0.201c0,5.466-7.779,16.127-23.335,31.985l-3.42,3.018h-0.201c13.243-13.646,21.155-23.101,23.737-28.364l1.408-2.615v-0.201
			h-0.201c-1.543,4.158-8.114,12.54-19.714,25.146c-6.673,6.404-13.78,12.773-21.323,19.11c-1.342,3.319-2.012,6.136-2.012,8.448
			c0.737,4.694,3.822,7.041,9.253,7.041h0.604c4.292,0,8.13-1.039,11.517-3.118h0.201l-0.201,0.201v0.201
			c0.402,0,0.604,0.135,0.604,0.402c-1.14,1.207-2.766,2.18-4.878,2.917c-2.112,0.537-3.855,0.805-5.23,0.805v0.201h1.408
			c0.938,0,2.816-0.335,5.633-1.006v0.402c-2.816,1.073-5.767,1.609-8.852,1.609c-6.37,0-10.661-2.682-12.874-8.047l-0.402-2.614
			V69.1l0.654-1.157c-0.402,0-1.895,1.543-4.477,4.627c-2.85,1.677-4.995,2.749-6.437,3.219c2.916-1.542,6.604-5.046,11.063-10.511
			c1.643-7.745,8.952-19.882,21.927-36.41c6.337-6.974,11.365-11.936,15.087-14.887l6.035-4.425L298.272,9.354z M268.5,55.822h0.201
			l-0.402,0.402h-0.201L268.5,55.822z M269.707,54.816h0.201l-0.805,0.805h-0.201L269.707,54.816z M272.523,52.202h0.201
			l-2.414,2.413h-0.201L272.523,52.202z M297.267,11.366v0.201h0.201l1.207-0.201v-0.201h-0.805L297.267,11.366z M300.083,17.199
			l-0.201,0.805v0.201h0.201l0.201-0.604v-0.402H300.083z"/>
		<path d="M331.062,9.354h0.402c1.742,0,2.615,1.006,2.615,3.018l-0.805-0.201l-0.201,0.201l-1.006-0.201h-0.604
			c-0.671,0-3.354,2.212-8.047,6.638c-8.181,7.813-13.947,14.384-17.3,19.714c-7.712,10.528-12.339,17.972-13.88,22.329
			c4.659-3.521,12.036-10.292,22.128-20.317l7.845-8.851c7.242-8.65,10.863-14.617,10.863-17.903l-0.201-1.006h0.402l0.604,2.815
			v0.201c0,5.466-7.779,16.127-23.335,31.985l-3.42,3.018h-0.201c13.243-13.646,21.155-23.101,23.737-28.364l1.408-2.615v-0.201
			h-0.201c-1.543,4.158-8.114,12.54-19.714,25.146c-6.673,6.404-13.78,12.773-21.323,19.11c-1.342,3.319-2.012,6.136-2.012,8.448
			c0.737,4.694,3.822,7.041,9.253,7.041h0.604c4.292,0,8.13-1.039,11.517-3.118h0.201l-0.201,0.201v0.201
			c0.402,0,0.604,0.135,0.604,0.402c-1.14,1.207-2.766,2.18-4.878,2.917c-2.112,0.537-3.855,0.805-5.23,0.805v0.201h1.408
			c0.938,0,2.816-0.335,5.633-1.006v0.402c-2.816,1.073-5.767,1.609-8.852,1.609c-6.37,0-10.661-2.682-12.874-8.047l-0.402-2.614
			V69.1l0.654-1.157c-0.402,0-1.895,1.543-4.477,4.627c-2.85,1.677-4.995,2.749-6.437,3.219c2.916-1.542,6.604-5.046,11.063-10.511
			c1.643-7.745,8.952-19.882,21.927-36.41c6.337-6.974,11.365-11.936,15.087-14.887l6.035-4.425L331.062,9.354z M301.289,55.822
			h0.201l-0.402,0.402h-0.201L301.289,55.822z M302.496,54.816h0.201l-0.805,0.805h-0.201L302.496,54.816z M305.313,52.202h0.201
			l-2.414,2.413h-0.201L305.313,52.202z M330.056,11.366v0.201h0.201l1.207-0.201v-0.201h-0.805L330.056,11.366z M332.872,17.199
			l-0.201,0.805v0.201h0.201l0.201-0.604v-0.402H332.872z"/>
		<path d="M353.943,17.903h0.201c0,1.442-1.744,4.359-5.23,8.751l-1.006,1.71v0.251l2.414-2.716v0.252
			c-4.795,7.275-8.751,13.679-11.868,19.211v0.251c10.627-13.478,16.461-22.128,17.501-25.949h0.402
			c0,2.783-2.481,7.762-7.443,14.936h0.201l5.633-8.197v0.503c-2.247,4.259-7.142,11.315-14.686,21.173v0.251
			c17.937-2.145,34.299-3.219,49.084-3.219h3.621c19.814,0,36.913,2.9,51.296,8.7v0.503l-6.236-1.709v0.502l-9.856-2.263h-0.402
			v0.252l6.236,1.509v0.502h-0.402c-14.25-2.849-28.13-4.274-41.641-4.274c-16.797,0-32.556,0.755-47.273,2.264l-0.604-0.252v-0.503
			l21.323-1.76v-0.252h-1.811C352.4,49,344.019,49.755,338.253,50.593l-0.201,0.251h-0.201v0.252h0.201l2.815-0.252h0.402v0.503
			h-0.201c-2.95,0-4.761,0.905-5.431,2.716c-6.236,6.404-9.589,11.063-10.059,13.98c-2.548,6.169-3.822,11.165-3.822,14.986
			c0,0.637,0.402,1.308,1.207,2.012h0.604c6.772-0.805,15.154-3.889,25.146-9.253h0.402l-2.414,2.162l0.201,0.252
			c-4.459,2.816-6.873,4.224-7.242,4.224v0.252h0.201c2.414-0.838,3.822-1.257,4.225-1.257c-5.801,3.62-11.566,6.151-17.3,7.594
			c-4.393,0-7.209-2.414-8.448-7.242v-2.012c0-2.581,0.871-6.403,2.614-11.466c-2.715,2.515-4.258,3.771-4.626,3.771v-0.503
			c-4.058,3.487-6.471,5.23-7.242,5.23c6.035-4.895,10.729-9.304,14.081-13.227L329.2,51.85h-0.201l-9.253,1.006v-0.503h-0.201
			l-20.116,2.213l-0.805-0.252v-0.503h0.201c9.891-0.805,20.619-2.296,32.186-4.476C334.363,43.3,342.007,32.823,353.943,17.903z
			 M315.521,53.106v0.453h-1.006v-0.201L315.521,53.106z M316.527,52.855h1.207v0.503h-1.207V52.855z M318.338,52.604h1.006v0.502
			h-1.006V52.604z M320.349,52.102v0.251h1.006v-0.251H320.349z M321.958,51.85v0.252h1.006V51.85H321.958z M323.567,51.599v0.251
			h1.006v-0.251H323.567z M325.177,51.347v0.252h1.006v-0.252H325.177z M326.987,51.096v0.251h1.006v-0.251H326.987z
			 M328.597,50.844v0.252h0.805v-0.252H328.597z M331.011,57.834h0.201l1.811-2.263h-0.201L331.011,57.834z M347.707,36.108
			l-7.645,10.511h0.201c5.097-6.638,7.645-10.141,7.645-10.511H347.707z M341.672,50.593h1.408v0.503h-1.408V50.593z
			 M365.409,48.078v0.251h2.615v-0.251H365.409z M423.545,50.09v0.251h1.207V50.09H423.545z M424.953,50.341v0.252h1.207v-0.252
			H424.953z M426.563,50.593v0.251h0.805v-0.251H426.563z"/>
		<path d="M371.646,53.609c4.325,0,7.073,3.286,8.247,9.857c0,1.24,0.269,2.716,0.805,4.426c0,1.24-1.073,3.654-3.219,7.241h0.201
			c2.783-0.435,5.666-1.509,8.65-3.218l0.201,0.201v0.2c-2.012,1.074-3.018,1.879-3.018,2.414c-1.911,1.476-3.789,2.213-5.633,2.213
			v0.201h0.805l4.426-1.207v0.201c0,0.738-3.018,1.609-9.052,2.615c-3.722,4.023-9.221,6.035-16.495,6.035h-1.408
			c-5.029,0-8.182-1.785-9.455-5.356c-1.273-3.57,0.939-8.49,6.639-14.76c2.112-2.112,4.928-4.593,8.448-7.443
			C362.827,55.219,366.113,54.012,371.646,53.609z M350.725,78.151v0.604c1.944,2.28,3.822,3.42,5.633,3.42
			c3.017,0,6.504-1.341,10.46-4.023c-4.694-0.871-7.041-1.743-7.041-2.615c-1.207-0.535-2.347-2.346-3.419-5.431h-0.201
			c-2.481,1.24-4.023,2.783-4.627,4.626C350.992,76.174,350.725,77.313,350.725,78.151z M353.139,71.313h0.201l2.816-2.213v-0.402
			C354.245,69.938,353.239,70.81,353.139,71.313z M370.237,57.029v0.805l0.201,0.201v0.201l-0.201,0.201l-1.207-0.402
			c-3.487,0.973-5.23,1.979-5.23,3.018l-5.23,5.834v0.201c0.402,0,2.548-2.146,6.438-6.438v0.201
			c-0.671,1.375-2.749,3.722-6.236,7.041c-0.269,0.033-0.47,0.503-0.604,1.408v1.006c0,3.017,3.286,4.827,9.857,5.431h1.811
			c4.961-4.895,7.442-10.259,7.442-16.093c-0.436-2.146-2.246-3.219-5.431-3.219h-1.006L370.237,57.029z M366.013,57.834v0.201
			h0.201l3.621-0.402v-0.201c0-0.268-0.201-0.402-0.604-0.402L366.013,57.834z M370.237,55.219v0.201l0.201,0.201v0.201l0.201-0.201
			h2.615V55.42l-2.414-0.201H370.237z M376.876,77.146v0.201h0.804v-0.201H376.876z"/>
		<path d="M416.103,43.954c2.146,0,3.621,2.28,4.426,6.84c0,4.827-2.615,9.589-7.846,14.282
			c-7.175,8.416-10.796,12.841-10.862,13.276h0.201c3.554-3.386,7.777-8.146,12.673-14.282c7.477-7.979,12.774-12.673,15.893-14.081
			l3.218-1.207h0.604c0.436,0,0.838,0.938,1.207,2.816h0.201c0,6.772-1.274,11.063-3.822,12.874l-2.614,4.023
			c5.934-6.705,11.499-11.399,16.696-14.082l5.431-2.614c0-0.57,0.335-0.973,1.006-1.207h0.604c2.347,0,3.89,2.413,4.627,7.241
			v0.604c-1.039,2.549-3.336,5.768-6.89,9.656c-3.554,2.984-5.331,5.516-5.331,7.594v1.609c0,2.246,1.743,3.722,5.23,4.426
			l2.615-1.609h0.201v0.402h0.201c2.213-1.106,4.627-2.917,7.241-5.432h0.201v0.201c-0.57,1.576-1.979,3.252-4.224,5.029
			c-2.917,1.877-4.795,2.815-5.633,2.815c0,0.402,0.268,0.604,0.805,0.604l4.426-2.212c0,0.703-2.012,1.709-6.035,3.017
			l-1.811,0.201h-1.207c-2.481,0-4.56-1.542-6.236-4.626c-0.536-1.106-0.904-2.641-1.105-4.602
			c-0.201-1.962,1.927-4.803,6.387-8.524c4.458-3.722,7.442-7.979,8.951-12.774c0-0.435-0.604-0.837-1.811-1.207v1.207l0.201,0.201
			v0.201l-0.201,0.201h-0.402l-0.604-0.402c-3.487,0.974-10.326,6.002-20.519,15.088l-7.04,9.856v-0.402l0.604-1.408
			c-1.207,1.308-1.811,2.783-1.811,4.426c-0.235,0-0.369,0.469-0.402,1.408l0.604,0.604v0.604l-0.402,0.402
			c-3.219-1.106-4.828-3.118-4.828-6.035c0-5.062,4.426-12.64,13.276-22.731l0.604-1.006h-0.402v-0.201
			c0.938-1.742,1.408-2.815,1.408-3.218c-2.815,0.838-7.175,4.057-13.075,9.655c-7.31,8.281-12.271,13.713-14.886,16.294v-0.201
			c8.113-9.622,14.014-16.193,17.702-19.714c4.627-4.156,8.113-6.504,10.46-7.04v-0.402h-0.201
			c-4.962,1.375-13.075,8.75-24.34,22.127c-4.359,5.365-7.108,8.047-8.248,8.047v0.604h0.201l1.408-0.604
			c0,0.402-0.604,0.738-1.811,1.006c-1.476-1.207-2.213-2.414-2.213-3.621v-0.201c0-2.446,2.213-6.269,6.639-11.466
			c7.912-9.22,11.868-14.114,11.868-14.685c0.805-1.844,1.207-3.186,1.207-4.023c-0.704-0.536-1.308-0.805-1.811-0.805
			c-2.582,0-5.264,2.414-8.046,7.241l0.201,0.201c-0.503,0-1.308,0.939-2.414,2.816c-5.398,7.443-12.641,14.216-21.726,20.317
			h-0.201v-0.402c7.443-4.727,14.282-11.298,20.519-19.714l1.006-1.408h-0.201c-4.963,7.41-12.473,14.316-22.53,20.72V76.14h0.604
			v-0.201h-0.604l-0.805,0.201l-0.201-0.201v-0.201c0.402-0.368,2.581-2.137,6.538-5.306c3.955-3.168,8.381-7.786,13.276-13.854
			c3.822-3.252,6.269-6.789,7.343-10.611h0.402v1.207h0.201C412.549,45.094,414.561,44.021,416.103,43.954z M403.631,79.761h0.201
			l-0.604,0.604h-0.201L403.631,79.761z M410.471,49.386v0.201h0.201c1.106-1.609,2.782-2.749,5.028-3.42l1.408-0.201v-0.201
			l-0.604-0.201C414.292,45.563,412.28,46.838,410.471,49.386z M449.094,55.018h0.201l3.017-1.006v-0.402h-0.402
			C451.037,53.71,450.1,54.181,449.094,55.018z M452.11,51.397V51.8l0.201-0.201h0.805c0.033,0.671,0.234,1.006,0.604,1.006h1.207
			c0-0.302-0.47-0.57-1.408-0.805v-0.604L452.11,51.397z M452.513,53.609l0.402,0.402l0.201-0.201v-0.201H452.513z"/>
		<path d="M502.954,17.903h0.201c0,1.442-1.744,4.359-5.23,8.751l-1.006,1.71v0.251l2.414-2.716v0.252
			c-4.795,7.275-8.751,13.679-11.868,19.211v0.251c10.627-13.478,16.461-22.128,17.501-25.949h0.402
			c0,2.783-2.481,7.762-7.443,14.936h0.201l5.633-8.197v0.503c-2.247,4.259-7.142,11.315-14.686,21.173v0.251
			c17.937-2.145,34.299-3.219,49.084-3.219h3.621c19.814,0,36.913,2.9,51.296,8.7v0.503l-6.236-1.709v0.502l-9.856-2.263h-0.402
			v0.252l6.236,1.509v0.502h-0.402c-14.25-2.849-28.13-4.274-41.641-4.274c-16.797,0-32.556,0.755-47.273,2.264l-0.604-0.252v-0.503
			l21.323-1.76v-0.252h-1.811c-10.997,0.671-19.379,1.426-25.145,2.264l-0.201,0.251h-0.201v0.252h0.201l2.815-0.252h0.402v0.503
			h-0.201c-2.95,0-4.761,0.905-5.431,2.716c-6.236,6.404-9.589,11.063-10.059,13.98c-2.548,6.169-3.822,11.165-3.822,14.986
			c0,0.637,0.402,1.308,1.207,2.012h0.604c6.772-0.805,15.154-3.889,25.146-9.253h0.402l-2.414,2.162l0.201,0.252
			c-4.459,2.816-6.873,4.224-7.242,4.224v0.252h0.201c2.414-0.838,3.822-1.257,4.225-1.257c-5.801,3.62-11.566,6.151-17.3,7.594
			c-4.393,0-7.209-2.414-8.448-7.242v-2.012c0-2.581,0.871-6.403,2.614-11.466c-2.715,2.515-4.258,3.771-4.626,3.771v-0.503
			c-4.058,3.487-6.471,5.23-7.242,5.23c6.035-4.895,10.729-9.304,14.081-13.227l6.035-11.718h-0.201l-9.253,1.006v-0.503h-0.201
			l-20.116,2.213l-0.805-0.252v-0.503h0.201c9.891-0.805,20.619-2.296,32.186-4.476C483.374,43.3,491.018,32.823,502.954,17.903z
			 M464.532,53.106v0.453h-1.006v-0.201L464.532,53.106z M465.538,52.855h1.207v0.503h-1.207V52.855z M467.349,52.604h1.006v0.502
			h-1.006V52.604z M469.359,52.102v0.251h1.006v-0.251H469.359z M470.969,51.85v0.252h1.006V51.85H470.969z M472.578,51.599v0.251
			h1.006v-0.251H472.578z M474.188,51.347v0.252h1.006v-0.252H474.188z M475.998,51.096v0.251h1.006v-0.251H475.998z
			 M477.607,50.844v0.252h0.805v-0.252H477.607z M480.021,57.834h0.201l1.811-2.263h-0.201L480.021,57.834z M496.718,36.108
			l-7.645,10.511h0.201c5.097-6.638,7.645-10.141,7.645-10.511H496.718z M490.683,50.593h1.408v0.503h-1.408V50.593z M514.42,48.078
			v0.251h2.615v-0.251H514.42z M572.556,50.09v0.251h1.207V50.09H572.556z M573.964,50.341v0.252h1.207v-0.252H573.964z
			 M575.573,50.593v0.251h0.805v-0.251H575.573z"/>
		<path d="M514.068,54.213h0.805c1.038,0,2.111,1.09,3.218,3.27l0.604,2.665c-0.905,3.319-5.767,8.063-14.584,14.232
			c-2.012,0.771-3.286,1.408-3.822,1.911v0.15c0.168,2.716,1.509,4.074,4.023,4.074c1.877,0,6.102-1.542,12.673-4.627
			c2.28-0.737,4.057-1.509,5.331-2.313v0.201l-0.553,0.754l0.201,0.201v0.201l-1.911,2.112h0.15l1.157-0.402v0.201
			c-1.442,2.448-4.124,4.175-8.047,5.18c-2.783,0.771-5.28,1.157-7.493,1.157c-4.962,0-8.097-1.86-9.404-5.582l-0.553-3.219
			c0-7.107,4.794-13.511,14.383-19.211C511.989,54.532,513.264,54.213,514.068,54.213z M500.69,71.916h0.201
			c1.944-0.771,6.604-4.778,13.981-12.02l0.854-1.006l0.051-0.402c-6.773,2.582-11.802,6.99-15.088,13.227V71.916z"/>
		<path d="M516.885,76.542h0.201l0.402,0.402l-0.201,0.201h-0.201l-0.201-0.201V76.542z M536.196,51.397
			c1.743,0.872,2.615,2.614,2.615,5.229v0.402h-0.402c0-0.402-0.135-0.604-0.402-0.604c0,1.274-0.402,3.018-1.207,5.23l2.414,1.811
			c1.911,0,4.728-1.609,8.449-4.828l1.207-0.604h0.201c1.206,1.476,1.81,2.951,1.81,4.426c-0.805,0.47-2.011,2.146-3.62,5.029
			c-6.706,4.896-10.059,9.388-10.059,13.478c0,1.509,1.14,2.515,3.42,3.018h0.604c2.917-0.638,6.94-2.782,12.069-6.438l5.029-3.822
			l-4.828,6.035v0.201l1.811-1.609v0.402c-3.521,5.364-8.215,8.047-14.081,8.047h-0.604c-3.89,0-6.505-1.677-7.846-5.029
			l-0.402-1.609V79.56c0-4.257,2.414-8.549,7.242-12.874c-1.777-0.503-2.984-1.441-3.621-2.816v-0.201h-0.201
			c-1.743,3.085-3.42,5.298-5.029,6.639h-0.201v-0.201c2.112-2.347,3.722-4.56,4.828-6.639v-0.604h-0.402
			c-0.503,1.71-2.381,4.124-5.632,7.242h-0.201l0.805-1.006h-0.402c0,0.269-1.543,1.677-4.627,4.224v0.201h0.201l0.402-0.402h0.201
			c-2.012,2.146-3.487,3.219-4.426,3.219c0-0.268,0.402-0.535,1.207-0.805v-0.201h-0.402c-0.168,0.37-1.575,1.04-4.225,2.012v-0.604
			c3.051-0.771,7.477-4.124,13.276-10.058c2.28-2.983,3.42-4.728,3.42-5.23c-0.402-0.972-0.604-2.313-0.604-4.023v-0.805
			C533.983,53.141,534.721,51.397,536.196,51.397z M524.932,75.134h0.201c-1.006,1.207-1.811,1.811-2.414,1.811
			C522.986,76.509,523.725,75.906,524.932,75.134z M535.794,58.639c0.536,0,0.938-1.341,1.207-4.023H536.8
			C536.297,54.615,535.962,55.957,535.794,58.639z M536.196,60.852v0.201h0.402c0.671-1.811,1.006-3.084,1.006-3.822
			C537.336,57.23,536.867,58.438,536.196,60.852z"/>
		<path d="M560.386,76.593c3.621,0.57,5.432,1.441,5.432,2.615v0.503l-0.252,0.251l0.755,0.805v0.252
			c-0.905,1.038-2.029,1.726-3.369,2.062c-1.811,0-3.102-1.475-3.873-4.426C559.548,77.347,559.983,76.66,560.386,76.593z"/>
		<path d="M600.015,49.185c1.106,0.134,1.777,2.28,2.012,6.437l-1.006,5.029c5.298-4.76,8.985-7.375,11.064-7.846
			c0-0.435,1.609-0.972,4.828-1.608c2.647,0,4.392,2.146,5.229,6.437v0.604c0,1.375-2.213,4.795-6.638,10.26
			c-2.549,4.324-3.822,7.141-3.822,8.448c0,1.911,1.273,3.319,3.822,4.225h0.201c4.86-0.536,8.683-1.475,11.466-2.816l5.432-3.42
			l0.201,0.201v0.201l-2.414,2.012c0,0.537-1.408,1.543-4.225,3.018v0.201h0.201l2.414-1.006c0,1.073-3.219,2.48-9.656,4.225
			c-0.536,0.234-2.011,0.436-4.425,0.604c-2.549,0-4.963-1.543-7.242-4.627l-0.201-1.408v-1.006c0-5.029,3.353-11.868,10.059-20.519
			l1.006-2.012h-1.408c-2.917,0-8.014,3.018-15.289,9.053l-0.604-0.201c-2.012,1.677-6.504,6.84-13.478,15.489
			c-3.99,4.693-6.672,7.041-8.047,7.041h-0.2c-1.207-1.106-1.811-2.381-1.811-3.822c0-4.392,4.156-9.958,12.472-16.696
			c5.599-5.498,8.817-9.455,9.655-11.869l0.604-1.81h-0.402l-2.614,0.804v-0.401c1.609-0.805,2.682-1.207,3.218-1.207v-0.604
			l-4.626,1.609c0-0.269,0.402-0.536,1.207-0.805v-0.201h-0.402l-4.225,2.815l0.201,0.201v0.201
			c-5.801,5.197-11.232,10.494-16.294,15.893c-4.963,5.229-7.577,7.845-7.846,7.845l-1.006,0.201v-1.408h0.402l13.075-13.075
			C590.393,54.08,596.763,49.185,600.015,49.185z M595.389,67.289c-0.034,0.335-2.917,2.884-8.65,7.644
			c-4.962,5.13-7.442,8.147-7.442,9.053l0.2,0.805c1.476-0.201,5.565-4.492,12.271-12.874l3.822-4.627H595.389z M590.762,57.23
			v0.201c-1.106,1.241-1.845,1.911-2.213,2.012h-0.201C589.621,57.969,590.426,57.23,590.762,57.23z M591.768,75.134v0.201
			l-1.207,1.408h-0.201C590.795,75.973,591.265,75.436,591.768,75.134z M596.998,68.898V69.1c-2.348,3.018-4.023,4.962-5.029,5.833
			v-0.201L596.998,68.898z M595.791,52.202c-0.27,0.536-0.672,0.804-1.207,0.804C594.852,52.471,595.254,52.202,595.791,52.202z
			 M601.624,62.662h0.201c1.375-1.006,2.18-1.743,2.414-2.213h-0.201C602.697,61.422,601.893,62.159,601.624,62.662z"/>
		<path d="M654.73,53.609c4.325,0,7.073,3.286,8.247,9.857c0,1.24,0.269,2.716,0.805,4.426c0,1.24-1.073,3.654-3.219,7.241h0.201
			c2.783-0.435,5.666-1.509,8.65-3.218l0.201,0.201v0.2c-2.012,1.074-3.018,1.879-3.018,2.414c-1.911,1.476-3.789,2.213-5.633,2.213
			v0.201h0.805l4.426-1.207v0.201c0,0.738-3.018,1.609-9.052,2.615c-3.722,4.023-9.221,6.035-16.495,6.035h-1.408
			c-5.029,0-8.182-1.785-9.455-5.356c-1.273-3.57,0.939-8.49,6.639-14.76c2.112-2.112,4.928-4.593,8.448-7.443
			C645.912,55.219,649.198,54.012,654.73,53.609z M633.81,78.151v0.604c1.944,2.28,3.822,3.42,5.633,3.42
			c3.017,0,6.504-1.341,10.46-4.023c-4.694-0.871-7.041-1.743-7.041-2.615c-1.207-0.535-2.347-2.346-3.419-5.431h-0.201
			c-2.481,1.24-4.023,2.783-4.627,4.626C634.077,76.174,633.81,77.313,633.81,78.151z M636.224,71.313h0.201l2.816-2.213v-0.402
			C637.33,69.938,636.324,70.81,636.224,71.313z M653.322,57.029v0.805l0.201,0.201v0.201l-0.201,0.201l-1.207-0.402
			c-3.487,0.973-5.23,1.979-5.23,3.018l-5.23,5.834v0.201c0.402,0,2.548-2.146,6.438-6.438v0.201
			c-0.671,1.375-2.749,3.722-6.236,7.041c-0.269,0.033-0.47,0.503-0.604,1.408v1.006c0,3.017,3.286,4.827,9.857,5.431h1.811
			c4.961-4.895,7.442-10.259,7.442-16.093c-0.436-2.146-2.246-3.219-5.431-3.219h-1.006L653.322,57.029z M649.098,57.834v0.201
			h0.201l3.621-0.402v-0.201c0-0.268-0.201-0.402-0.604-0.402L649.098,57.834z M653.322,55.219v0.201l0.201,0.201v0.201l0.201-0.201
			h2.615V55.42l-2.414-0.201H653.322z M659.961,77.146v0.201h0.804v-0.201H659.961z"/>
	</g>
</g>
</svg>
